# xmcd
#
# Track frame offsets:
#	150
#	12353
#	25273
#	37625
#	55930
#	82818
#	108510
#	130373
#	146833
#	165588
#	184553
#
# Disc length: 2656 seconds
#
# Revision: 4
# Processed by: cddbd v1.5.2PL0 Copyright (c) Steve Scherf et al.
# Submitted via: EZCDAudioConverter 6.0.5.1
#
DISCID=840a5e0b
DTITLE=John Denver - One World
DYEAR=1986
DGENRE=Country
TTITLE0=Love Is The Master
TTITLE1=Love Again
TTITLE2=I Remember You
TTITLE3=Hey There, Mr. Lonely Heart
TTITLE4=Let Us Begin (What Are We Making Weapons For?)
TTITLE5=Flying For Me
TTITLE6=Along For The Ride ('56 T-Bird)
TTITLE7=I Can't Escape
TTITLE8=True Love Takes Time
TTITLE9=One World
TTITLE10=It's A Possibility
EXTD=
EXTT0=
EXTT1=
EXTT2=
EXTT3=
EXTT4=
EXTT5=
EXTT6=
EXTT7=
EXTT8=
EXTT9=
EXTT10=
PLAYORDER=
